<svg width="25" height="28" viewBox="0 0 25 28" fill="none" xmlns="http://www.w3.org/2000/svg">
<g clip-path="url(#clip0_1141_27)">
<path d="M14.4239 3.98097C14.4239 3.0514 15.1762 2.29755 16.1073 2.29755H22.7937C23.0672 2.29755 23.2882 2.34279 23.4828 2.42538C23.6354 2.50692 23.8669 2.62739 24.0299 2.78679C24.0299 2.78942 24.0299 2.79205 24.0352 2.79416C24.3614 3.12137 24.4771 3.54854 24.5245 3.97571C24.5245 3.97781 24.5245 3.97939 24.5245 3.98097V10.7147C24.5245 11.6458 23.7722 12.3981 22.841 12.3981C21.9099 12.3981 21.1576 11.6458 21.1576 10.7147V8.04749L12.246 16.9539C11.5884 17.6114 10.5257 17.6114 9.86814 16.9539C9.21055 16.2963 9.21055 15.2336 9.86814 14.576L18.7745 5.66439H16.1073C15.1762 5.66439 14.4239 4.91054 14.4239 3.98097ZM0.956512 7.34782C0.956512 5.48816 2.4637 3.98097 4.32336 3.98097H9.37363C10.3048 3.98097 11.0571 4.73483 11.0571 5.66439C11.0571 6.59554 10.3048 7.34782 9.37363 7.34782H4.32336V22.4986H19.4742V17.4484C19.4742 16.5172 20.2265 15.7649 21.1576 15.7649C22.0887 15.7649 22.841 16.5172 22.841 17.4484V22.4986C22.841 24.3557 21.3312 25.8655 19.4742 25.8655H4.32336C2.4637 25.8655 0.956512 24.3557 0.956512 22.4986V7.34782Z" fill="white"/>
</g>
<defs>
<clipPath id="clip0_1141_27">
<rect width="23.5679" height="26.9348" fill="white" transform="translate(0.956512 0.614136)"/>
</clipPath>
</defs>
</svg>
