<svg width="18" height="20" viewBox="0 0 18 20" fill="none" xmlns="http://www.w3.org/2000/svg">
<g clip-path="url(#clip0_1104_82)">
<path d="M0.25 3.75C0.25 3.05977 0.809766 2.5 1.5 2.5H16.5C17.1914 2.5 17.75 3.05977 17.75 3.75C17.75 4.44141 17.1914 5 16.5 5H1.5C0.809766 5 0.25 4.44141 0.25 3.75ZM0.25 10C0.25 9.30859 0.809766 8.75 1.5 8.75H16.5C17.1914 8.75 17.75 9.30859 17.75 10C17.75 10.6914 17.1914 11.25 16.5 11.25H1.5C0.809766 11.25 0.25 10.6914 0.25 10ZM16.5 17.5H1.5C0.809766 17.5 0.25 16.9414 0.25 16.25C0.25 15.5586 0.809766 15 1.5 15H16.5C17.1914 15 17.75 15.5586 17.75 16.25C17.75 16.9414 17.1914 17.5 16.5 17.5Z" fill="#101010"/>
</g>
<defs>
<clipPath id="clip0_1104_82">
<rect width="17.5" height="20" fill="white" transform="translate(0.25)"/>
</clipPath>
</defs>
</svg>
