<svg width="27" height="28" viewBox="0 0 27 28" fill="none" xmlns="http://www.w3.org/2000/svg">
<g clip-path="url(#clip0_1141_23)">
<path d="M25.284 19.1318H18.2609L15.8805 21.5123C15.2466 22.1462 14.3996 22.4986 13.5 22.4986C12.6004 22.4986 11.7556 22.1485 11.1195 21.5123L8.73907 19.1318H1.71603C0.786466 19.1318 0.032608 19.8857 0.032608 20.8152V25.8655C0.032608 26.7951 0.786466 27.5489 1.71603 27.5489H25.284C26.2135 27.5489 26.9674 26.7951 26.9674 25.8655V20.8152C26.9674 19.8841 26.2151 19.1318 25.284 19.1318ZM22.7588 24.6029C22.0644 24.6029 21.4963 24.0348 21.4963 23.3404C21.4963 22.6459 22.0644 22.0778 22.7588 22.0778C23.4532 22.0778 24.0214 22.6459 24.0214 23.3404C24.0214 24.0348 23.4532 24.6029 22.7588 24.6029ZM12.3111 20.3207C12.6372 20.6521 13.0686 20.8152 13.5 20.8152C13.9314 20.8152 14.3617 20.6508 14.69 20.322L21.4237 13.5883C22.0807 12.9307 22.0807 11.8655 21.4237 11.2079C20.7661 10.5503 19.7003 10.5503 19.0432 11.2079L15.1834 15.0705V2.29756C15.1834 1.36799 14.4296 0.614136 13.5 0.614136C12.5689 0.614136 11.8166 1.36799 11.8166 2.29756V15.0705L7.95522 11.2092C7.29816 10.5516 6.23234 10.5516 5.57476 11.2092C4.91769 11.8668 4.91769 12.9321 5.57476 13.5897L12.3111 20.3207Z" fill="white"/>
</g>
<defs>
<clipPath id="clip0_1141_23">
<rect width="26.9348" height="26.9348" fill="white" transform="translate(0.032608 0.614136)"/>
</clipPath>
</defs>
</svg>
