<svg width="126" height="34" viewBox="0 0 126 34" fill="none" xmlns="http://www.w3.org/2000/svg">
<path d="M43.4521 17.891V25.5586C43.4521 26.9669 44.5996 28.025 46.0079 28.025H53.6755C55.0863 28.025 56.2314 29.1701 56.2314 30.5809C56.2314 31.9917 55.0863 33.1367 53.6755 33.1367H46.0079C41.7805 33.1367 38.3403 29.786 38.3403 25.5586V17.891C38.3403 13.6636 41.7805 10.134 46.0079 10.134H53.6755C55.0863 10.134 56.2314 11.279 56.2314 12.6899C56.2314 14.1007 55.0863 15.2457 53.6755 15.2457H46.0079C44.5996 15.2457 43.4521 16.4828 43.4521 17.891ZM112.46 25.4692H117.572C121.799 25.4692 125.24 22.029 125.24 17.8016C125.24 13.5742 121.799 10.134 117.572 10.134H112.46C108.233 10.134 104.793 13.6176 104.793 17.8476V17.891V25.5586C104.793 29.786 108.233 33.1367 112.46 33.1367H120.128C121.539 33.1367 122.684 31.9917 122.684 30.5809C122.684 29.1701 121.539 28.025 120.128 28.025H112.46C111.052 28.025 109.904 26.9695 109.904 25.5586V25.119C110.704 25.4027 111.563 25.4692 112.46 25.4692ZM112.46 15.2457H117.572C118.98 15.2457 120.128 16.3933 120.128 17.8016C120.128 19.2099 118.98 20.3574 117.572 20.3574H112.46C111.052 20.3574 109.904 19.2099 109.904 17.8016C109.904 16.3933 111.052 15.2457 112.46 15.2457ZM99.681 0C98.2702 0 97.1252 1.14503 97.1252 2.55586V10.6631C96.3252 10.3794 95.4664 10.134 94.5693 10.134H89.4576C85.2302 10.134 81.79 13.6636 81.79 17.891V25.5586C81.79 29.786 85.2302 33.1367 89.4576 33.1367H94.5693C98.7967 33.1367 102.237 29.786 102.237 25.5586V17.891V2.55586C102.237 1.14503 101.092 0 99.681 0ZM97.1252 25.4692C97.1252 26.88 95.9801 28.025 94.5693 28.025H89.4576C88.0467 28.025 86.9017 26.88 86.9017 25.4692V17.8016C86.9017 16.3907 88.0467 15.2457 89.4576 15.2457H94.5693C95.9801 15.2457 97.1252 16.3907 97.1252 17.8016V25.4692ZM71.5665 10.134H66.4548C62.2198 10.134 58.7872 13.5665 58.7872 17.8016V25.4692C58.7872 29.7042 62.2198 33.1367 66.4548 33.1367H71.5665C75.8016 33.1367 79.2341 29.7042 79.2341 25.4692V17.8016C79.2341 13.5665 75.8016 10.134 71.5665 10.134ZM74.1224 25.4692C74.1224 26.88 72.9774 28.025 71.5665 28.025H66.4548C65.044 28.025 63.899 26.88 63.899 25.4692V17.8016C63.899 16.3907 65.044 15.2457 66.4548 15.2457H71.5665C72.9774 15.2457 74.1224 16.3907 74.1224 17.8016V25.4692Z" fill="white"/>
<path d="M12.7793 10.134H7.66759C3.44019 10.134 0 13.6176 0 17.8475V17.891V25.5586C0 29.786 3.44019 33.1367 7.66759 33.1367H15.3352C16.746 33.1367 17.891 31.9917 17.891 30.5809C17.891 29.17 16.746 28.025 15.3352 28.025H7.66759C6.25931 28.025 5.11172 26.9694 5.11172 25.5586V25.119C5.91171 25.4027 6.77048 25.4691 7.66759 25.4691H12.7793C17.0067 25.4691 20.4469 22.0289 20.4469 17.8015C20.4469 13.5741 17.0067 10.134 12.7793 10.134ZM12.7793 20.3574H7.66759C6.25931 20.3574 5.11172 19.2098 5.11172 17.8015C5.11172 16.3933 6.25931 15.2457 7.66759 15.2457H12.7793C14.1876 15.2457 15.3352 16.3933 15.3352 17.8015C15.3352 19.2098 14.1876 20.3574 12.7793 20.3574Z" fill="white"/>
<path d="M22.1924 33.8293C21.5841 33.4766 21.372 32.6919 21.7247 32.0836L34.504 9.94984C34.8567 9.34154 35.6413 9.12941 36.2496 9.48211C36.8579 9.83482 37.0701 10.6195 36.7174 11.2278L23.938 33.3615C23.5879 33.9698 22.8032 34.182 22.1924 33.8293Z" fill="#33CC00"/>
</svg>
