<svg width="27" height="28" viewBox="0 0 27 28" fill="none" xmlns="http://www.w3.org/2000/svg">
<g clip-path="url(#clip0_1141_5)">
<path d="M24.4422 3.98096C25.8363 3.98096 26.9674 5.11148 26.9674 6.50609C26.9674 7.30046 26.5939 8.04748 25.9573 8.5262L14.51 17.1117C13.9103 17.5588 13.0897 17.5588 12.4899 17.1117L1.04265 8.5262C0.406786 8.04748 0.0325928 7.30046 0.0325928 6.50609C0.0325928 5.11148 1.16312 3.98096 2.55773 3.98096H24.4422ZM11.4799 18.4584C12.6793 19.358 14.3207 19.358 15.5201 18.4584L26.9674 9.87294V20.8152C26.9674 22.6722 25.4576 24.182 23.6005 24.182H3.39944C1.53978 24.182 0.0325928 22.6722 0.0325928 20.8152V9.87294L11.4799 18.4584Z" fill="white"/>
</g>
<defs>
<clipPath id="clip0_1141_5">
<rect width="26.9348" height="26.9348" fill="white" transform="translate(0.0325928 0.614136)"/>
</clipPath>
</defs>
</svg>
