<svg width="48" height="48" viewBox="0 0 48 48" fill="none" xmlns="http://www.w3.org/2000/svg">
<g clip-path="url(#clip0_1101_2672)">
<path d="M15.25 17.75C15.25 17.0598 15.8098 16.5 16.5 16.5H31.5C32.1914 16.5 32.75 17.0598 32.75 17.75C32.75 18.4414 32.1914 19 31.5 19H16.5C15.8098 19 15.25 18.4414 15.25 17.75ZM15.25 24C15.25 23.3086 15.8098 22.75 16.5 22.75H31.5C32.1914 22.75 32.75 23.3086 32.75 24C32.75 24.6914 32.1914 25.25 31.5 25.25H16.5C15.8098 25.25 15.25 24.6914 15.25 24ZM31.5 31.5H16.5C15.8098 31.5 15.25 30.9414 15.25 30.25C15.25 29.5586 15.8098 29 16.5 29H31.5C32.1914 29 32.75 29.5586 32.75 30.25C32.75 30.9414 32.1914 31.5 31.5 31.5Z" fill="#101010"/>
</g>
<rect x="0.5" y="0.5" width="47" height="47" rx="4.5" stroke="#101010"/>
<defs>
<clipPath id="clip0_1101_2672">
<rect width="17.5" height="20" fill="white" transform="translate(15.25 14)"/>
</clipPath>
</defs>
</svg>
