<svg width="20" height="20" viewBox="0 0 20 20" fill="none" xmlns="http://www.w3.org/2000/svg">
<path d="M18.125 3.75H15V1.875C15 0.839844 14.1602 0 13.125 0H6.875C5.83984 0 5 0.839844 5 1.875V3.75H1.875C0.839844 3.75 0 4.58984 0 5.625V16.875C0 17.9102 0.839844 18.75 1.875 18.75H18.125C19.1602 18.75 20 17.9102 20 16.875V5.625C20 4.58984 19.1602 3.75 18.125 3.75ZM6.875 1.875H13.125V3.75H6.875V1.875ZM14.375 12.2656C14.375 12.6108 14.0952 12.8906 13.75 12.8906H11.6406V15C11.6406 15.3452 11.3608 15.625 11.0508 15.625H9.01953C8.67441 15.625 8.39453 15.3452 8.39453 15V12.9258H6.25C5.90484 12.9258 5.625 12.6459 5.625 12.3008V10.2695C5.625 9.9243 5.90484 9.64453 6.25 9.64453H8.32422V7.5C8.32422 7.15477 8.6041 6.875 8.94922 6.875H10.9805C11.3256 6.875 11.5703 7.15477 11.5703 7.5V9.60938H13.75C14.0952 9.60938 14.375 9.88914 14.375 10.2344V12.2656Z" fill="white"/>
</svg>
