<svg width="28" height="28" viewBox="0 0 28 28" fill="none" xmlns="http://www.w3.org/2000/svg">
<g clip-path="url(#clip0_1141_34)">
<path d="M12.8987 16.0017C13.1828 15.7176 13.672 15.7176 13.9561 16.0017L18.0068 20.0524C18.7538 20.7994 19.7481 21.2097 20.8002 21.2097H21.5946L16.4865 26.3179C14.8925 27.8698 12.3042 27.8698 10.7102 26.3179L5.58104 21.194H6.07029C7.12243 21.194 8.1167 20.7836 8.86372 20.0366L12.8987 16.0017ZM13.9561 12.1298C13.6194 12.4191 13.188 12.4244 12.8987 12.1298L8.86372 8.09482C8.1167 7.30046 7.12243 6.93747 6.07029 6.93747H5.58104L10.705 1.81144C12.3042 0.215033 14.8925 0.215033 16.4865 1.81144L21.5999 6.92169H20.8002C19.7481 6.92169 18.7538 7.33202 18.0068 8.07904L13.9561 12.1298ZM6.07029 8.12113C6.79627 8.12113 7.46437 8.41573 8.02201 8.93128L12.057 12.9662C12.4357 13.2977 12.9302 13.5344 13.43 13.5344C13.9245 13.5344 14.419 13.2977 14.7978 12.9662L18.8485 8.91549C19.3641 8.40521 20.0743 8.11061 20.8002 8.11061H22.7835L25.8505 11.1776C27.4445 12.7716 27.4445 15.3599 25.8505 16.9538L22.7835 20.0208H20.8002C20.0743 20.0208 19.3641 19.7262 18.8485 19.2107L14.7978 15.1599C14.0666 14.4287 12.7882 14.4287 12.057 15.1652L8.02201 19.1949C7.46437 19.7104 6.79627 20.005 6.07029 20.005H4.39633L1.34408 16.9538C-0.252336 15.3599 -0.252336 12.7716 1.34408 11.1776L4.39633 8.12113H6.07029Z" fill="white"/>
</g>
<defs>
<clipPath id="clip0_1141_34">
<rect width="26.9348" height="26.9348" fill="white" transform="translate(0.146736 0.614136)"/>
</clipPath>
</defs>
</svg>
