<svg width="18" height="18" viewBox="0 0 18 18" fill="none" xmlns="http://www.w3.org/2000/svg">
<path d="M17.75 3.96484C17.75 6.07031 16.0703 7.71484 14 7.71484C12.9883 7.71484 12.0703 7.35156 11.3984 6.69922L7.72266 8.53516C7.74219 8.6875 7.71484 8.80859 7.71484 9C7.71484 9.15625 7.74219 9.27734 7.72266 9.46484L11.3984 11.3008C12.0703 10.6484 12.9883 10.25 14 10.25C16.0703 10.25 17.75 11.8945 17.75 14C17.75 16.0703 16.0703 17.75 14 17.75C11.8945 17.75 10.25 16.0703 10.25 14C10.25 13.8086 10.2578 13.6875 10.2773 13.5352L6.60156 11.6992C5.92969 12.3516 5.01172 12.75 4 12.75C1.92891 12.75 0.25 11.0703 0.25 9C0.25 6.89453 1.92891 5.25 4 5.25C5.01172 5.25 5.92969 5.64844 6.60156 6.30078L10.2773 4.46484C10.2578 4.27734 10.25 4.15625 10.25 4C10.25 1.92891 11.8945 0.25 14 0.25C16.0703 0.25 17.75 1.92891 17.75 4V3.96484ZM3.96484 10.2148C4.69141 10.2148 5.21484 9.69141 5.21484 8.96484C5.21484 8.30859 4.69141 7.71484 3.96484 7.71484C3.30977 7.71484 2.71484 8.30859 2.71484 8.96484C2.71484 9.69141 3.30977 10.2148 3.96484 10.2148ZM14 2.71484C13.3086 2.71484 12.75 3.30859 12.75 3.96484C12.75 4.69141 13.3086 5.21484 14 5.21484C14.6914 5.21484 15.25 4.69141 15.25 3.96484C15.25 3.30859 14.6914 2.71484 14 2.71484ZM14 15.25C14.6914 15.25 15.25 14.6914 15.25 14C15.25 13.3086 14.6914 12.75 14 12.75C13.3086 12.75 12.75 13.3086 12.75 14C12.75 14.6914 13.3086 15.25 14 15.25Z" fill="white"/>
</svg>
